<?xml version="1.0" standalone="no"?>
<!DOCTYPE svg PUBLIC "-//W3C//DTD SVG 20010904//EN"
 "http://www.w3.org/TR/2001/REC-SVG-20010904/DTD/svg10.dtd">
<svg version="1.0" xmlns="http://www.w3.org/2000/svg"
 width="618.000000pt" height="404.000000pt" viewBox="0 0 618.000000 404.000000"
 preserveAspectRatio="xMidYMid meet">

<g transform="translate(0.000000,404.000000) scale(0.100000,-0.100000)"
fill="#000000" stroke="none">
<path d="M1265 2548 c-22 -5 -57 -13 -78 -19 l-37 -10 2 -447 3 -447 75 -17
c41 -9 76 -16 77 -14 2 2 2 219 1 482 l-3 480 -40 -8z"/>
<path d="M1360 2070 l0 -482 43 7 c54 9 451 102 495 116 56 18 62 44 62 263 0
200 -5 232 -41 254 -16 10 -167 45 -286 66 l-33 6 0 -84 0 -83 78 -12 c121
-20 122 -21 122 -150 0 -80 -4 -112 -14 -120 -13 -11 -96 -31 -193 -46 l-43
-7 0 354 0 353 -82 19 c-45 10 -87 20 -95 23 -11 4 -13 -79 -13 -477z"/>
<path d="M2220 2071 l0 -231 40 0 40 0 0 106 c0 58 4 103 8 100 5 -3 19 -39
31 -81 13 -41 24 -75 26 -75 2 0 13 34 26 75 12 41 26 75 30 75 5 0 7 -44 6
-97 l-2 -98 43 -3 42 -3 0 231 0 231 -47 -3 -46 -3 -13 -50 c-8 -27 -18 -70
-24 -94 -6 -23 -14 -41 -16 -38 -3 3 -15 45 -27 94 l-22 88 -48 3 -47 3 0
-230z"/>
<path d="M2560 2070 l0 -230 40 0 40 0 0 230 0 230 -40 0 -40 0 0 -230z"/>
<path d="M2770 2069 l0 -231 101 4 c125 5 129 8 129 124 0 60 -4 87 -15 97
-11 12 -12 16 -2 20 18 6 15 196 -4 208 -8 5 -58 9 -111 9 l-98 0 0 -231z
m140 96 l0 -65 -30 0 c-30 0 -30 0 -30 58 0 65 3 72 37 72 22 0 23 -4 23 -65z
m5 -159 c12 -60 4 -81 -32 -84 l-33 -3 0 54 c0 60 4 67 36 67 18 0 24 -7 29
-34z"/>
<path d="M3059 2283 c-11 -12 -14 -60 -14 -209 0 -222 1 -224 84 -232 62 -6
115 4 136 24 23 23 22 395 -1 418 -23 23 -186 23 -205 -1z m131 -208 l0 -155
-25 0 -25 0 0 155 0 155 25 0 25 0 0 -155z"/>
<path d="M3330 2069 l0 -231 95 4 c134 4 129 -4 133 221 3 240 8 231 -126 235
l-102 3 0 -232z m140 6 l0 -155 -30 0 -30 0 0 155 0 155 30 0 30 0 0 -155z"/>
<path d="M3600 2070 l0 -230 85 0 c84 0 85 0 91 28 3 15 7 33 10 40 2 8 -11
12 -46 12 l-50 0 0 55 0 55 40 0 40 0 0 40 0 40 -40 0 -40 0 0 55 0 55 51 0
c48 0 51 1 45 23 -3 12 -6 30 -6 40 0 15 -11 17 -90 17 l-90 0 0 -230z"/>
<path d="M3846 2284 c-22 -22 -24 -390 -2 -419 12 -16 30 -20 115 -23 l101 -4
0 136 0 136 -45 0 -45 0 0 -95 c0 -95 0 -95 -25 -95 l-25 0 0 150 0 150 50 0
c46 0 50 2 50 24 0 51 -7 56 -85 56 -54 0 -78 -4 -89 -16z"/>
<path d="M4100 2092 c0 -164 3 -212 14 -228 12 -16 27 -19 100 -19 125 0 120
-10 124 245 l4 210 -51 0 -51 0 0 -190 0 -190 -25 0 -25 0 0 190 0 190 -45 0
-45 0 0 -208z"/>
<path d="M4380 2070 l0 -230 40 0 40 0 0 230 0 230 -40 0 -40 0 0 -230z"/>
<path d="M4511 2269 c-16 -46 -14 -49 19 -49 l30 0 0 -190 0 -190 45 0 45 0 0
190 0 190 30 0 c19 0 28 4 26 13 -3 6 -7 24 -10 40 -6 27 -7 27 -90 27 l-84 0
-11 -31z"/>
<path d="M4761 2233 c-7 -38 -21 -113 -31 -168 -10 -55 -22 -120 -25 -145 -4
-25 -9 -53 -11 -62 -5 -15 2 -18 40 -18 41 0 45 2 48 28 3 23 8 27 41 30 35 3
37 2 37 -27 0 -30 1 -31 45 -31 25 0 45 4 45 9 0 5 -7 42 -15 82 -14 76 -49
265 -60 332 -6 37 -6 37 -54 37 l-47 0 -13 -67z m73 -165 c10 -88 8 -98 -15
-98 -20 0 -21 4 -15 46 3 26 6 60 6 75 0 49 17 32 24 -23z"/>
<path d="M2824 1710 c2 -21 40 -19 42 3 1 12 1 13 -3 2 -5 -18 -30 -20 -36 -2
-2 7 -3 6 -3 -3z"/>
<path d="M3010 1710 c0 -11 2 -20 4 -20 2 0 6 9 9 20 3 11 1 20 -4 20 -5 0 -9
-9 -9 -20z"/>
<path d="M3131 1713 c-1 -18 4 -23 22 -22 15 1 17 3 5 6 -9 2 -19 12 -21 21
-3 12 -5 10 -6 -5z"/>
<path d="M3235 1719 c-4 -6 -5 -12 -2 -15 2 -3 7 2 10 11 7 17 1 20 -8 4z"/>
<path d="M3351 1717 c-1 -21 26 -34 41 -19 8 8 5 9 -10 6 -14 -4 -22 0 -25 13
-4 17 -5 17 -6 0z"/>
<path d="M3691 1714 c0 -11 3 -14 6 -6 3 7 2 16 -1 19 -3 4 -6 -2 -5 -13z"/>
<path d="M3841 1712 c-1 -19 3 -23 21 -20 13 2 23 11 24 21 1 12 1 13 -3 2 -6
-21 -30 -19 -36 3 -3 12 -5 11 -6 -6z"/>
<path d="M4031 1717 c-1 -21 26 -34 41 -19 8 8 5 9 -10 6 -14 -4 -22 0 -25 13
-4 17 -5 17 -6 0z"/>
<path d="M3258 1693 c7 -3 16 -2 19 1 4 3 -2 6 -13 5 -11 0 -14 -3 -6 -6z"/>
<path d="M3488 1693 c7 -3 16 -2 19 1 4 3 -2 6 -13 5 -11 0 -14 -3 -6 -6z"/>
<path d="M4438 1693 c6 -2 18 -2 25 0 6 3 1 5 -13 5 -14 0 -19 -2 -12 -5z"/>
</g>
</svg>
